HIERARCHY
ROOT Hips
{
	OFFSET 0.00000 0.00000 0.00000
	CHANNELS 6 Xposition Yposition Zposition Zrotation Yrotation Xrotation 
	JOINT LHipJoint
	{
		OFFSET 0 0 0
		CHANNELS 3 Zrotation Yrotation Xrotation
		JOINT LeftUpLeg
		{
			OFFSET 1.59715 -1.91394 0.36268
			CHANNELS 3 Zrotation Yrotation Xrotation
			JOINT LeftLeg
			{
				OFFSET 2.53886 -6.97546 0.00000
				CHANNELS 3 Zrotation Yrotation Xrotation
				JOINT LeftFoot
				{
					OFFSET 2.77084 -7.61284 0.00000
					CHANNELS 3 Zrotation Yrotation Xrotation
					JOINT LeftToeBase
					{
						OFFSET 0.19855 -0.54550 2.06057
						CHANNELS 3 Zrotation Yrotation Xrotation
						End Site
						{
							OFFSET 0.00000 -0.00000 1.07182
						}
					}
				}
			}
		}
	}
	JOINT RHipJoint
	{
		OFFSET 0 0 0
		CHANNELS 3 Zrotation Yrotation Xrotation
		JOINT RightUpLeg
		{
			OFFSET -1.71086 -1.91394 0.36268
			CHANNELS 3 Zrotation Yrotation Xrotation
			JOINT RightLeg
			{
				OFFSET -2.59448 -7.12828 0.00000
				CHANNELS 3 Zrotation Yrotation Xrotation
				JOINT RightFoot
				{
					OFFSET -2.80237 -7.69945 0.00000
					CHANNELS 3 Zrotation Yrotation Xrotation
					JOINT RightToeBase
					{
						OFFSET -0.18280 -0.50224 2.06614
						CHANNELS 3 Zrotation Yrotation Xrotation
						End Site
						{
							OFFSET -0.00000 -0.00000 1.07055
						}
					}
				}
			}
		}
	}
	JOINT LowerBack
	{
		OFFSET 0 0 0
		CHANNELS 3 Zrotation Yrotation Xrotation
		JOINT Spine
		{
			OFFSET 0.04838 1.91536 -0.09733
			CHANNELS 3 Zrotation Yrotation Xrotation
			JOINT Spine1
			{
				OFFSET 0.04097 1.92183 -0.02751
				CHANNELS 3 Zrotation Yrotation Xrotation
				JOINT Neck
				{
					OFFSET 0 0 0
					CHANNELS 3 Zrotation Yrotation Xrotation
					JOINT Neck1
					{
						OFFSET 0.18766 3.12816 0.13727
						CHANNELS 3 Zrotation Yrotation Xrotation
						JOINT Head
						{
							OFFSET -0.11178 3.16074 0.02732
							CHANNELS 3 Zrotation Yrotation Xrotation
							End Site
							{
								OFFSET 0.47685 1.04189 0.57898
							}
						}
					}
				}
				JOINT LeftShoulder
				{
					OFFSET 0 0 0
					CHANNELS 3 Zrotation Yrotation Xrotation
					JOINT LeftArm
					{
						OFFSET 3.49325 0.99827 -0.10681
						CHANNELS 3 Zrotation Yrotation Xrotation
						JOINT LeftForeArm
						{
							OFFSET 5.12842 -0.00000 0.00000
							CHANNELS 3 Zrotation Yrotation Xrotation
							JOINT LeftHand
							{
								OFFSET 3.47396 -0.00000 0.00000
								CHANNELS 3 Zrotation Yrotation Xrotation
								JOINT LeftFingerBase
								{
									OFFSET 0 0 0
									CHANNELS 3 Zrotation Yrotation Xrotation
									JOINT LeftHandIndex1
									{
										OFFSET 0.72861 -0.00000 0.00000
										CHANNELS 3 Zrotation Yrotation Xrotation
										End Site
										{
											OFFSET 0.58742 -0.00000 0.00000
										}
									}
								}
								JOINT LThumb
								{
									OFFSET 0 0 0
									CHANNELS 3 Zrotation Yrotation Xrotation
									End Site
									{
										OFFSET 0.59639 -0.00000 0.59639
									}
								}
							}
						}
					}
				}
				JOINT RightShoulder
				{
					OFFSET 0 0 0
					CHANNELS 3 Zrotation Yrotation Xrotation
					JOINT RightArm
					{
						OFFSET -3.23261 1.50670 -0.18692
						CHANNELS 3 Zrotation Yrotation Xrotation
						JOINT RightForeArm
						{
							OFFSET -5.48477 -0.00000 -0.00000
							CHANNELS 3 Zrotation Yrotation Xrotation
							JOINT RightHand
							{
								OFFSET -3.47856 -0.00000 0.00000
								CHANNELS 3 Zrotation Yrotation Xrotation
								JOINT RightFingerBase
								{
									OFFSET 0 0 0
									CHANNELS 3 Zrotation Yrotation Xrotation
									JOINT RightHandIndex1
									{
										OFFSET -0.70997 -0.00000 0.00000
										CHANNELS 3 Zrotation Yrotation Xrotation
										End Site
										{
											OFFSET -0.57240 -0.00000 0.00000
										}
									}
								}
								JOINT RThumb
								{
									OFFSET 0 0 0
									CHANNELS 3 Zrotation Yrotation Xrotation
									End Site
									{
										OFFSET -0.58114 -0.00000 0.58114
									}
								}
							}
						}
					}
				}
			}
		}
	}
}
MOTION
Frames: 8
Frame Time: .0083333
0.0666 18.2526 -4.0027 0 0 0 0 0 0 -21 0 0 0 0 0 0 0 0 0 0 0 0 0 0 21 0 0 0 0 0 0 0 0 0 0 0 0 0 0 0 0 0 0 0 0 0 0 -16 0 0 21 0 0 11 0 0 0 -8 0 0 0 0 0 0 0 0 0 0 0 0 0 0 0 0 0 0 0 0 8 0 0 0 0 0 0 0 0 0 0 0 0 0 0 0 0 0
0.0666 18.2526 -4.0027 -3.4589 4.5239 5.1014 0.0000 0.0000 0.0000 -16.9048 -13.5016 -10.5781 2.2776 9.4219 27.1242 0.8084 5.0545 -19.5513 0.0312 1.1407 3.1360 0.0000 0.0000 0.0000 27.1008 13.7563 -13.1315 -2.8098 -10.3806 30.2184 -0.7761 -7.6370 -21.1135 -1.9419 -8.7441 24.9980 3.3326 -2.6780 2.5682 3.0738 -3.3410 -1.9178 1.4884 -1.7041 -3.4240 -10.2286 -12.1069 -9.4191 0.0609 -14.8688 13.3790 0.2900 -7.7127 6.3803 0.0000 -0.0000 0.0000 -86.8133 7.9087 -0.1434 19.9774 -30.6151 -5.5198 -0.0000 -0.0000 12.7461 6.6864 28.1234 3.1630 -7.1250 0.0000 -0.0000 -25.7831 56.3404 -7.5201 0.0000 -0.0000 0.0000 80.7307 -2.7546 12.3500 -15.4041 24.7061 -3.3931 0.0000 0.0000 1.2918 -20.0751 18.3208 -6.5532 7.1250 -0.0000 -0.0000 5.2368 -10.6238 4.1996
0.0728 18.2532 -4.0028 -3.3658 4.5161 5.0959 0.0000 0.0000 0.0000 -17.0358 -13.4610 -10.5281 2.2639 9.3954 27.0403 0.8072 5.0311 -19.5241 0.0249 1.0190 2.8011 0.0000 0.0000 0.0000 26.9733 13.7123 -13.1567 -2.8223 -10.4017 30.2875 -0.7897 -7.5638 -21.1841 -1.9609 -8.7841 25.1224 3.2642 -2.7003 2.5986 3.0606 -3.3717 -1.9362 1.5168 -1.7182 -3.4569 -10.2013 -12.0572 -9.5967 0.0300 -14.7812 13.5167 0.2701 -7.6718 6.4456 -0.0000 -0.0000 0.0000 -86.8419 7.9222 -0.0304 20.0358 -30.6854 -5.5496 -0.0000 -0.0000 12.6932 6.7830 28.1004 3.2066 -7.1250 0.0000 -0.0000 -25.6716 56.3392 -7.4837 -0.0000 -0.0000 0.0000 80.7238 -2.7802 12.4757 -15.4505 24.7700 -3.4125 0.0000 0.0000 1.1895 -20.2043 18.3418 -6.6059 7.1250 -0.0000 -0.0000 5.1535 -10.5849 4.1363
0.0810 18.2529 -4.0027 -3.2792 4.5314 5.0652 0.0000 0.0000 0.0000 -17.1757 -13.4715 -10.4496 2.2583 9.3845 27.0058 0.8080 5.0275 -19.5296 0.0209 0.9332 2.5649 0.0000 0.0000 0.0000 26.8529 13.6177 -13.1754 -2.8351 -10.4232 30.3583 -0.7906 -7.5665 -21.1954 -1.8887 -8.6304 24.6458 3.2300 -2.7368 2.6147 3.0321 -3.4228 -1.9142 1.5094 -1.7430 -3.4428 -10.0833 -12.0081 -9.6994 -0.0452 -14.7095 13.5158 0.2331 -7.6364 6.4439 0.0000 -0.0000 0.0000 -86.8469 7.8670 -0.0070 20.0306 -30.6791 -5.5469 -0.0000 -0.0000 12.6726 6.8418 27.7122 3.1935 -7.1250 0.0000 -0.0000 -25.3388 56.0031 -7.1662 0.0000 -0.0000 0.0000 80.7674 -2.7433 12.6202 -15.5406 24.8938 -3.4503 0.0000 0.0000 1.0145 -20.2945 18.1554 -6.5731 7.1250 -0.0000 -0.0000 5.0829 -10.7682 4.0602
0.0872 18.2513 -4.0044 -3.2544 4.5104 5.0658 0.0000 0.0000 0.0000 -17.2306 -13.4533 -10.4407 2.2554 9.3789 26.9879 0.7960 5.0850 -19.4486 0.0224 0.9673 2.6588 0.0000 0.0000 0.0000 26.7988 13.5948 -13.2207 -2.8468 -10.4428 30.4228 -0.7937 -7.5497 -21.2107 -1.8859 -8.6242 24.6265 3.2179 -2.7399 2.5465 3.0379 -3.4339 -1.8469 1.5162 -1.7474 -3.3335 -9.9879 -11.9994 -9.8134 -0.0947 -14.6909 13.4309 0.2035 -7.6242 6.4232 0.0000 -0.0000 0.0000 -86.8451 7.6027 -0.0283 19.9231 -30.5496 -5.4922 -0.0000 -0.0000 12.8111 6.8390 27.4421 3.1636 -7.1250 0.0000 -0.0000 -25.1536 55.7598 -6.9568 0.0000 -0.0000 0.0000 80.8163 -2.5597 12.5780 -15.5742 24.9399 -3.4645 0.0000 0.0000 0.9056 -20.3130 18.0622 -6.5472 7.1250 -0.0000 -0.0000 5.0650 -10.8633 4.0359
0.0860 18.2512 -4.0130 -3.1720 4.6749 5.2920 0.0000 0.0000 0.0000 -17.2341 -13.5950 -10.7430 2.2577 9.3835 27.0023 0.7958 4.9144 -19.3345 0.0297 1.1131 3.0601 0.0000 0.0000 0.0000 26.6536 13.6505 -13.5328 -2.8563 -10.4587 30.4754 -0.7951 -7.6000 -21.2637 -1.9363 -8.7321 24.9607 3.0855 -2.8050 2.3865 3.0645 -3.5320 -1.8975 1.6152 -1.7932 -3.2856 -9.9356 -11.9701 -9.8700 -0.1108 -14.6495 13.3464 0.1958 -7.6013 6.3981 0.0000 -0.0000 0.0000 -86.8157 7.3782 0.0466 19.8559 -30.4683 -5.4581 -0.0000 -0.0000 13.0080 6.6213 27.5199 3.0702 -7.1250 0.0000 -0.0000 -25.4202 55.7868 -7.0547 0.0000 -0.0000 0.0000 80.8543 -2.4456 12.5146 -15.6035 24.9800 -3.4768 0.0000 0.0000 0.9431 -20.3793 18.0537 -6.5673 7.1250 -0.0000 -0.0000 5.0210 -10.8636 4.0005
0.0889 18.2509 -4.0163 -3.1972 4.6549 5.3497 0.0000 0.0000 0.0000 -17.1988 -13.6251 -10.8501 2.2662 9.3998 27.0540 0.7968 4.8936 -19.3314 0.0304 1.1250 3.0929 0.0000 0.0000 0.0000 26.6519 13.7523 -13.5912 -2.8612 -10.4669 30.5023 -0.8034 -7.5782 -21.3242 -1.9525 -8.7664 25.0673 3.0856 -2.8202 2.3787 3.1079 -3.5504 -1.9224 1.6614 -1.8022 -3.3042 -9.9203 -11.9440 -9.9273 -0.1384 -14.6057 13.3375 0.1869 -7.5809 6.3995 0.0000 -0.0000 0.0000 -86.8233 7.2937 0.1682 19.8480 -30.4588 -5.4541 -0.0000 -0.0000 13.0783 6.3627 27.8488 2.9819 -7.1250 0.0000 -0.0000 -25.9037 56.0301 -7.3591 0.0000 -0.0000 0.0000 80.8608 -2.3910 12.5324 -15.6192 25.0016 -3.4835 0.0000 0.0000 0.9928 -20.4317 18.0643 -6.5893 7.1250 -0.0000 -0.0000 4.9873 -10.8457 3.9753
0.0936 18.2496 -4.0176 -3.2752 4.4880 5.2893 0.0000 0.0000 0.0000 -17.1577 -13.5711 -10.8128 2.2768 9.4203 27.1192 0.7954 5.0169 -19.3976 0.0293 1.1057 3.0398 0.0000 0.0000 0.0000 26.7283 13.8395 -13.5085 -2.8652 -10.4736 30.5243 -0.8033 -7.5325 -21.2874 -1.9420 -8.7441 24.9982 3.1432 -2.7861 2.4901 3.1574 -3.4951 -1.9213 1.6839 -1.7755 -3.3668 -9.8857 -11.9278 -10.0307 -0.2439 -14.5615 13.4047 0.1461 -7.5660 6.4258 0.0000 -0.0000 0.0000 -86.8502 7.2270 0.3177 19.8035 -30.4049 -5.4316 -0.0000 -0.0000 13.0786 6.3572 28.1514 3.0089 -7.1250 0.0000 -0.0000 -26.1259 56.2991 -7.6032 0.0000 -0.0000 0.0000 80.8657 -2.3682 12.5596 -15.6728 25.0749 -3.5061 0.0000 0.0000 0.9868 -20.3468 17.9822 -6.5311 7.1250 -0.0000 -0.0000 5.0380 -10.9428 4.0060
